<svg xmlns="http://www.w3.org/2000/svg" width="164" height="50" viewBox="0 0 400 121.951"><g fill-rule="evenodd"><path d="M30.546 13.375c-.415.537-.399.625.111.625.433 0 .51-.063.51-.417 0-.445-.347-.562-.621-.208m91.954 3.958c0 .231.111.334.359.334.349 0 .35-.01.058-.334-.166-.183-.328-.333-.359-.333-.032 0-.058.15-.058.333M285.518 31.65c-.285.266-.518.538-.518.603 0 .066.236-.111.526-.394.289-.283.589-.475.666-.427.078.048.141.008.141-.089 0-.301-.276-.197-.815.307m-228.181-.131c-1.1.439-1.004-2.393-1.004 29.475v28.777l.542.406c.526.395.64.408 3.912.46l3.37.054.422-.421.421-.422V78.195c0-6.409.047-11.888.104-12.174l.104-.521 11.605-.005c12.261-.006 11.905.017 12.326-.776.353-.662.26-5.774-.11-6.11-.278-.251-1.357-.276-12.081-.276H65.173l-.091-.375c-.05-.206-.07-4.725-.045-10.041l.046-9.667 13.933-.083c16.685-.1 14.812.332 14.812-3.417 0-2.777-.006-2.799-.87-3.16-.738-.309-34.856-.376-35.621-.071m35.072.508.424.193v5.06l-.424.193c-.311.142-4.02.194-13.862.194-12.27 0-13.464.024-13.742.275-.289.262-.305.802-.305 10.324v10.048l.37.26c.327.229 1.741.259 11.967.259 8.797 0 11.645.049 11.796.2.279.279.279 4.988 0 5.267-.151.152-3.008.2-11.835.2H65.162l-.33.542c-.322.526-.331.873-.331 12.55-.001 9.117-.049 12.056-.201 12.208-.282.282-6.484.282-6.767 0-.154-.154-.2-6.798-.2-28.891V32.218l.375-.181c.552-.266 34.117-.276 34.701-.01m51.287.392c.047.047 6.371.085 14.054.085s14.007-.038 14.054-.085c.047-.047-6.278-.086-14.054-.086-7.776 0-14.101.039-14.054.086m162.642.1c-.461.184-.67.443-.658.814.004.141.073.088.157-.122.083-.204.397-.479.698-.611.614-.268.446-.338-.197-.081m-163.729.286c-.152.167-.273.374-.271.458.003.085.085.018.181-.149.097-.166.338-.367.537-.447.244-.099.275-.149.095-.156-.146-.006-.39.126-.542.294m29.558-.173c0 .111.069.201.155.201.085 0 .179.169.208.375.034.238.16.367.345.352.16-.013.292.036.292.107 0 .072.112.174.25.227.364.14.326.084-.5-.727-.413-.405-.75-.646-.75-.535m171.582.218c-.075.129-.072.175.007.103s.238.041.354.25c.117.209.214.301.217.204.013-.378-.433-.807-.578-.557m-202.835 25.4c0 12.833.02 18.059.044 11.612.024-6.447.024-16.947 0-23.333-.024-6.387-.044-1.112-.044 11.721m162.767-22.848c-.217.231-.344.532-.299.708.067.258.082.249.099-.054.01-.199.225-.515.477-.703.252-.189.378-.345.279-.348-.098-.003-.349.176-.556.397m25.857-.29c-.351.141-.739.999-.452.999.128 0 .192-.066.142-.146-.128-.207.286-.662.521-.572.107.041.195-.03.195-.159 0-.245-.057-.263-.406-.122m-26.329 1.971c.002.367.036.497.076.29a1.835 1.835 0 0 0-.004-.667c-.042-.159-.074.011-.072.377m24.666.361c-.285.115-.263.334.034.334.134 0 .196-.075.14-.167-.063-.101.01-.124.182-.058.17.065.245.043.184-.055-.109-.176-.212-.187-.54-.054m-14.667 1.926c-.206.1-.375.319-.375.489 0 .406.035.394.557-.192.471-.528.431-.592-.182-.297m23.209.277c-.368.076-.506.202-.52.478-.024.448.287.489.635.083.257-.299.528-.725.436-.686a8.795 8.795 0 0 1-.551.125m-9.532.317c-.419.267-.763 1.869-.401 1.869.083 0 .112-.15.064-.334-.123-.471.272-1.336.687-1.504.213-.086.251-.144.098-.149a.935.935 0 0 0-.448.118m-22.539.141c-.03.442.499 1.347.893 1.526.378.172.428.158.428-.123 0-.402-.475-.887-.761-.777-.128.049-.285-.101-.382-.365-.09-.247-.17-.365-.178-.261m-27.971 5.681c.252.038.665.038.917 0s.045-.069-.459-.069-.71.031-.458.069m-83.167.557c-.65.609-.659.657-.13.657.315 0 .387-.065.305-.277-.077-.202-.046-.24.114-.141.15.092.181.072.098-.064-.068-.109-.033-.308.078-.442.332-.4.112-.274-.465.267m3.292-.453c0 .273.575 1.11.762 1.11.37 0 .284-.238-.262-.724-.275-.245-.5-.419-.5-.386m38.081.144c-.349.183-.748.617-.748.812 0 .063.244.102.542.086.485-.025.538-.077.506-.496-.026-.345.027-.443.203-.375.131.05.273.035.316-.034.119-.192-.45-.188-.819.007m3.733.847c.073.073.875.11 1.784.083l1.652-.049-1.784-.083c-.981-.045-1.725-.023-1.652.049m-47.859.073c.295.036.82.037 1.166.001s.104-.066-.538-.067c-.641-.001-.924.029-.628.066m8.174.002c.392.035.992.034 1.334-.002.341-.035.02-.064-.713-.064-.733.001-1.013.03-.621.066m33.167 0a8.34 8.34 0 0 0 1.333-.002c.342-.035.021-.064-.712-.064-.734.001-1.013.03-.621.066m40.496-.002c.298.037.785.037 1.083 0 .298-.037.054-.067-.542-.067-.596 0-.839.03-.541.067m8 0c.298.037.785.037 1.083 0 .298-.037.054-.067-.542-.067-.596 0-.839.03-.541.067m27.916.002c.436.034 1.148.034 1.584 0 .435-.034.079-.063-.792-.063s-1.227.029-.792.063m42.417 0c.481.034 1.269.034 1.75 0 .481-.033.087-.061-.875-.061-.963 0-1.356.028-.875.061m27.422 0a10.87 10.87 0 0 0 1.5-.001c.387-.035.028-.063-.797-.063-.825.001-1.141.03-.703.064m-190.932.511c-.507.529-.557.7-.204.7.202 0 .607-.513.659-.834.007-.045.07-.064.138-.041.069.023.125-.034.125-.125 0-.29-.256-.183-.718.3m41.252-.13c-.677.412-.721.873-.075.799.332-.038.456-.145.452-.386-.003-.183.07-.386.162-.449.413-.286-.061-.254-.539.036m55.633.066c0 .145.083.264.184.264.102 0 .143.108.092.241-.06.158-.012.211.139.153.158-.061.19-.199.1-.441-.159-.431-.515-.581-.515-.217m63.224.021c-.15.391.012.437.242.068.129-.206.14-.325.03-.325-.095 0-.218.115-.272.257m-35.557.604c0 .198.047.314.105.256.058-.058.255-.026.437.072.328.175.328.172.02-.251-.384-.526-.562-.551-.562-.077m35.381.722c.001.458.033.626.072.373a2.975 2.975 0 0 0-.003-.834c-.039-.205-.071.003-.069.461m-163.35.923c-.201.187-.365.388-.365.446 0 .058.169-.048.375-.235.207-.188.488-.383.625-.433.216-.079.214-.093-.01-.105-.143-.007-.424.14-.625.327m-1.724 1.369c-.485.411-.89 1.097-.738 1.25.054.053.097.022.097-.07 0-.091.113-.179.25-.194l.5-.056c.138-.015.258-.109.267-.208.078-.85.096-1.097.083-1.097-.009.001-.216.17-.459.375m191.245-.078c-.237.151-.599 1.045-.474 1.17.049.049.088-.004.088-.116s.062-.166.138-.119c.075.046.131-.077.125-.274-.008-.222.146-.44.404-.572.229-.118.304-.215.167-.215a.986.986 0 0 0-.448.126m-109.583 1.125c-.427.233-.766.836-.576 1.027.05.049.14-.106.2-.346s.162-.437.226-.437.263-.11.44-.244c.412-.312.285-.312-.29 0m84.849 1.05c.09.168.294.411.454.541.18.147.14.03-.105-.305-.438-.598-.602-.709-.349-.236m-69.152-.087c0 .029.241.273.536.542.294.269.436.359.314.2-.121-.159-.177-.403-.124-.542.071-.183-.015-.252-.314-.252-.227 0-.412.023-.412.052m-98.807.406c-.19.161-.39.517-.444.792l-.098.5.241-.52c.132-.286.415-.643.628-.792.213-.149.304-.271.203-.271-.102 0-.341.131-.53.291m101.472 1.151c.227.261.48.549.562.641.081.092.062.001-.042-.202-.104-.202-.169-.463-.145-.579.024-.116-.144-.239-.373-.273l-.417-.061.415.474m-82.331-.069c0 .366.598.705.765.435.072-.116.047-.148-.062-.081-.099.061-.298-.056-.442-.262-.209-.298-.261-.316-.261-.092m62.552.091c-.241.153-.598 1.046-.47 1.174.051.05.222-.046.38-.213.158-.168.194-.253.079-.189-.312.175-.255-.323.068-.591.151-.126.307-.204.347-.173.039.03.115.012.169-.042.142-.142-.341-.114-.573.034m-41.479.724c-.353.375-.397.475-.157.356.184-.091.427-.132.542-.091.115.041.208-.001.208-.092 0-.092.046-.286.101-.431.164-.427-.168-.303-.694.258m-41.645.574c-.144.144-.262.344-.262.444 0 .1.02.151.044.113.024-.038.185-.238.359-.444.359-.427.256-.51-.141-.113m22.058-.035c.222.273.847.686.847.56 0-.032-.244-.236-.542-.455-.335-.245-.451-.285-.305-.105m19.014.513c0 .511.095.552.215.093.048-.183.019-.375-.064-.426-.083-.052-.151.098-.151.333m64.198.543c.198.211.384.383.414.383.03 0 .054-.172.054-.383 0-.297-.093-.383-.414-.383h-.414l.36.383m-23.467.472c-.152.232-.236.463-.186.512.05.05.137-.054.193-.231.056-.177.269-.403.474-.501.292-.141.31-.182.083-.191-.158-.006-.412.179-.564.411m-17.324.413c.067.228.296.565.509.748.214.184.424.521.467.75.044.23.069-.014.057-.541-.021-.882-.104-1.043-.5-.973-.078.015-.258-.07-.399-.187-.222-.185-.24-.158-.134.203m-23.849.331c-.509.205-1.029 1.667-.592 1.667.093 0 .127-.161.075-.359-.061-.235-.031-.321.088-.247.099.061.235.024.302-.083.075-.122.048-.151-.072-.077-.263.163-.248-.313.016-.532.114-.096.281-.174.37-.175.09-.001.19-.082.223-.181.068-.206.067-.206-.41-.013m139.567-.056a.358.358 0 0 1 .208.303c0 .241.489.487.649.327.126-.127-.618-.745-.876-.727-.122.009-.116.043.019.097m-7.968 1.106c.682.733.65.721.55.203-.043-.228-.145-.374-.226-.324-.082.05-.154-.044-.161-.21-.008-.187-.046-.22-.1-.086-.069.172-.14.174-.362.007-.151-.115-.017.07.299.41m18.228.248c-.373.238-.696 1.369-.391 1.369.089 0 .114-.124.055-.277-.068-.178-.041-.237.077-.164.101.062.238.026.305-.082.075-.122.048-.15-.072-.076-.106.065-.193.054-.193-.026 0-.219.386-.659.667-.759.222-.079.222-.091 0-.1a.91.91 0 0 0-.448.115m-166.219.507c0 .162.72.862.886.862.146 0 .15-.742.005-.887-.061-.06-.211-.026-.334.076-.164.136-.223.136-.223-.002 0-.102-.075-.187-.167-.187-.092 0-.167.062-.167.138m64.941.571c-.126.482-.126.457.009.462.063.003.141-.185.172-.416.07-.522-.048-.553-.181-.046M177.558 62.5c0 .779.029 1.098.064.708a9.561 9.561 0 0 0 0-1.416c-.035-.39-.064-.071-.064.708m82.849 3.667c0 2.795.023 3.939.051 2.541.028-1.398.028-3.685 0-5.083-.028-1.398-.051-.254-.051 2.542M352 61.343c0 .097.087.123.192.058.118-.073.148-.046.076.07-.155.25.182.862.474.862.127 0 .266.094.31.209.043.114.069-.055.056-.375-.028-.689-1.108-1.492-1.108-.824m-107.167.284c0 .191.453.706.621.706.054 0-.044-.168-.218-.375a9.009 9.009 0 0 1-.359-.444c-.024-.038-.044.013-.044.113m108.412 2.33c.144.571.41.903.62.774.088-.055-.003-.273-.203-.486-.2-.213-.314-.468-.253-.566.061-.098.023-.179-.084-.179-.129 0-.156.154-.08.457m14.46.71c0 .32.035.452.077.291.041-.16.041-.423 0-.583-.042-.16-.077-.029-.077.292m-182.8 1.011c0 .303.023.313.194.078.205-.28.512.096.326.398-.043.068.032.124.166.124.319 0 .309-.354-.02-.683-.364-.364-.666-.327-.666.083m181.842.042c-.072.176-.041.385.074.5.154.152.171.124.077-.122-.081-.214-.061-.282.062-.206a.223.223 0 0 0 .304-.082c.072-.116.049-.15-.057-.085-.098.061-.214.016-.257-.099-.052-.141-.119-.11-.203.094m-189.222 2.062c-.014.751.031 1.4.1 1.443.069.042.104-.384.078-.949-.078-1.725-.152-1.93-.178-.494m177.116-.503c.477.909 1.11 1.18.821.35-.103-.295-.219-.44-.259-.323-.053.16-.158.138-.411-.087-.333-.296-.336-.294-.151.06m-128.363.651c.048.124.136.217.196.205.235-.046.711.25.558.347-.097.061-.069.187.07.316.308.286.328-.28.023-.662-.278-.348-.965-.515-.847-.206m18.979.239c-.271.266-.446.531-.389.588.058.058.192-.057.298-.256.106-.198.284-.325.396-.282.112.043.214-.064.227-.237.029-.385.064-.398-.532.187m120.519-.031c-.152.168-.273.412-.27.542.003.134.097.072.217-.144.116-.209.275-.321.354-.25.079.072.082.025.006-.106-.103-.176-.067-.209.14-.13.152.058.277.034.277-.055 0-.267-.43-.182-.724.143M364 69.797c0 .201.143.309.442.334l.443.036-.385-.333c-.47-.408-.5-.41-.5-.037m-186.249.238c.226.775.824 1.092.886.469.062-.622.084-.591-.525-.737-.432-.104-.463-.081-.361.268m41.416 1.235c0 .091.11.312.244.49.135.178.245.248.245.157 0-.092-.11-.313-.245-.491-.134-.177-.244-.248-.244-.156m25.065.393c-.194.078-.398.262-.454.408-.077.199.022.174.393-.101.658-.486.671-.553.061-.307m8.053.393c.061.1-.009.124-.174.061-.153-.059-.278-.034-.278.055 0 .237.43.196.644-.061.139-.168.125-.222-.056-.222-.132 0-.193.075-.136.167m16.616.803c-.079.128-.045.147.102.056.164-.102.192-.055.108.183-.099.283-.088.289.099.049.167-.213.251-.226.404-.062.124.132.136.265.034.367-.101.101-.066.159.096.159.331 0 .328-.349-.006-.682-.309-.309-.671-.339-.837-.07m-25.568.381c0 .511.095.552.215.093.048-.183.019-.375-.064-.426-.083-.051-.151.099-.151.333m17.169-.223c-.005.565.365 1.278.756 1.456.391.178.409.161.409-.391 0-.496-.052-.572-.365-.538-.245.026-.436-.098-.581-.377-.137-.265-.217-.32-.219-.15m-40.333.775c.002.333.043.394.151.223.082-.129.111-.335.063-.458-.135-.353-.217-.263-.214.235m151.539-.174c-.247.047-.375.191-.375.423 0 .345.006.345.417-.041.35-.329.535-.565.375-.477a4.02 4.02 0 0 1-.417.095m-192.875.174c0 .429.638.964.864.725.122-.13.134-.184.025-.123-.108.06-.351-.089-.542-.332-.191-.242-.347-.363-.347-.27m63.875.213c-.206.083-.375.28-.375.438 0 .258.022.261.209.026a2.13 2.13 0 0 1 .541-.443c.4-.219.152-.233-.375-.021m-22.375.428c0 .047.222.322.492.612.482.515.772.566.593.104-.088-.226-1.085-.884-1.085-.716m30.896.821c-.287.322-.455.626-.375.675.08.05.146.011.146-.086 0-.097.094-.158.208-.135.115.023.19-.052.167-.166-.023-.115.046-.209.153-.209s.145-.049.085-.109c-.061-.061-.027-.211.076-.334.396-.477.033-.19-.46.364m-9.989-.014c-.317.235-.317.246-.008.541.173.166.266.214.205.106-.06-.109-.032-.245.063-.304.095-.058.121-.189.059-.29-.073-.118-.015-.145.164-.077.152.059.277.034.277-.055 0-.236-.389-.196-.76.079m-41.524.385c-.16.252-.368.513-.462.581-.11.079-.1.123.028.125a.393.393 0 0 0 .303-.167c.058-.093.174-.127.258-.075.084.052.107-.024.051-.17-.064-.169-.022-.248.117-.217.121.026.248-.083.283-.244.098-.447-.251-.346-.578.167m-10.049.278c0 .145.118.264.264.264.294 0 .243-.359-.066-.462-.109-.036-.198.053-.198.198m43 .792c.321.319.604.566.629.55.166-.11-.256-.635-.691-.86l-.521-.269.583.579m7.171-.368c-.135.085-.187.213-.116.284.071.071.182.049.245-.049a.878.878 0 0 1 .366-.274c.223-.084.223-.096 0-.106-.137-.005-.36.06-.495.145m38.699.418c-.463.481-.465.588-.009.588.198 0 .311-.05.249-.111-.061-.061.006-.242.15-.4.401-.443.032-.515-.39-.077m92.028-.007c-.055.143-.167.219-.249.168-.082-.051-.149-.013-.149.084 0 .239.207.222.576-.048.215-.157.249-.261.114-.344-.107-.066-.237-.004-.292.14m-131.322.273c-.153.248.025.383.344.261.147-.057.221-.179.164-.271-.135-.218-.369-.214-.508.01m22.59-.037c0 .203.929 1.042 1.035.935.186-.185-.077-.762-.307-.674-.125.048-.228.023-.228-.056s-.112-.187-.25-.239c-.137-.053-.25-.038-.25.034m-12.125.321c-.29.048-.375.173-.375.556 0 .441.036.475.33.318.738-.396.769-.994.045-.874m13.399 1.368c.136.274.336.55.445.616.111.066.096-.007-.034-.168-.128-.157-.188-.33-.133-.385.095-.095-.273-.559-.444-.559-.045 0 .029.223.166.496m96.726-.074c0 .124.081.274.179.335.098.061.239.271.314.468.109.286.134.234.123-.256-.014-.592-.616-1.127-.616-.547m-137 .309c0 .291.442.665.56.473.05-.08-.056-.27-.235-.423-.25-.214-.325-.226-.325-.05m.839.56c.01.23.462.731.536.594.04-.075-.066-.267-.234-.427-.169-.16-.305-.235-.302-.167m80.842 1.028c.014.566.022.574.149.152.074-.245.177-.514.228-.597.052-.084-.015-.152-.148-.152-.17 0-.239.179-.229.597m-80.263-.154c-.056.091.164.292.488.447.325.154.629.399.676.543.046.144.315.393.598.553.598.339 1.023.393.587.075-.163-.12-.271-.363-.24-.542.042-.241-.05-.337-.36-.373-.614-.07-1.671-.559-1.569-.725.049-.079.051-.143.005-.143-.045 0-.129.074-.185.165m-39.987.646c-.049.079.051.272.223.427.389.352.625.064.253-.308-.304-.304-.354-.317-.476-.119m176.069.306c0 .156-.24.531-.533.833-.383.396-.482.601-.352.731s.217.123.309-.026c.082-.133.059-.165-.065-.088-.105.065-.192.04-.192-.057 0-.156.35-.253.708-.197.069.011.13.001.136-.022.087-.352.149-1.458.081-1.458-.05 0-.092.128-.092.284m-94.83-.018c-.004.274.615.781.729.597.054-.087-.014-.251-.151-.365-.136-.113-.249-.14-.25-.06-.002.08-.075.033-.164-.105-.089-.137-.163-.168-.164-.067M141 82.295c0 .409.436.991.611.816.076-.076.003-.237-.162-.358s-.228-.246-.141-.278c.088-.032.054-.155-.074-.273-.194-.178-.234-.162-.234.093m144-.13c0 .292 1.004 1.185 1.198 1.066.106-.066.099-.167-.017-.283a.783.783 0 0 1-.181-.481c0-.165-.106-.3-.236-.3a1.71 1.71 0 0 1-.5-.101c-.151-.058-.264-.015-.264.099m-98.667.254c0 .246.918.915 1.25.911.092-.001.069-.064-.05-.139-.12-.076-.204-.206-.189-.29.101-.537-.036-.734-.511-.734-.335 0-.5.083-.5.252m81.165.329c.662.683.768.669.407-.054-.171-.344-.386-.527-.617-.527-.32 0-.301.054.21.581m91.669.825c0 .511.095.552.215.094.048-.183.019-.375-.064-.427-.083-.051-.151.099-.151.333m-168.417.406c.592.567.649.562.373-.032-.122-.264-.342-.445-.54-.446-.294 0-.275.055.167.478m49.957-.368c-.115.046-.17.148-.122.225.048.078-.081.259-.286.403-.205.143-.286.261-.179.261a.392.392 0 0 0 .298-.169c.058-.094.186-.119.286-.058.101.062.133.035.074-.062-.059-.095.042-.212.224-.26.182-.047.331-.168.331-.269 0-.188-.261-.218-.626-.071m38.582.097c-.13.34-.13.46.003.442.068-.009.106-.084.083-.167-.023-.082.033-.15.125-.15a.167.167 0 0 0 .167-.166c0-.238-.283-.207-.378.041m-81.622.792-.417.133.458.017c.252.009.459-.058.459-.15s-.019-.159-.042-.15a20.85 20.85 0 0 1-.458.15m35.666.029c0 .076.225.138.5.138s.5-.029.5-.065c0-.035-.225-.097-.5-.138-.275-.04-.5-.011-.5.065m39.167-.006c0 .079.188.144.417.144.229 0 .416-.029.416-.064s-.187-.1-.416-.144c-.229-.044-.417-.015-.417.064m4.667-.023-.417.133.458.017c.252.009.459-.058.459-.15s-.019-.159-.042-.15a20.85 20.85 0 0 1-.458.15m81.163.587c-.116.14-.163.303-.104.361.059.059.107.018.107-.092s.169-.268.375-.351c.254-.102.288-.154.104-.161-.149-.006-.366.104-.482.243m-2.014 4.889c-.238.243-.486.589-.551.771-.066.187.138.041.468-.333.803-.909.864-1.23.083-.438m-.816 2.691c0 .641.056 1.166.125 1.166s.125-.525.125-1.166c0-.642-.056-1.167-.125-1.167s-.125.525-.125 1.167m.167 1.796c0 .267.529.872.68.778a.185.185 0 0 0-.192-.317c-.14.086-.226-.142-.175-.466.011-.068-.055-.125-.147-.125-.091 0-.166.059-.166.13M122.5 104.526c0 .348.01.35.333.057.184-.166.334-.327.334-.359 0-.031-.15-.057-.334-.057-.23 0-.333.111-.333.359m-92.125 3.682c.367.554.792.583.792.054 0-.369-.073-.429-.521-.429-.502 0-.511.013-.271.375" fill="#84d2da"/><path d="M58 61v28.667h6.167l.002-12.542c.002-7.61.065-12.64.161-12.792.137-.217 1.708-.256 12.164-.297l12.006-.047v-3.92l-.752-.201c-.552-.148-3.687-.201-11.756-.201-9.626 0-11.014-.032-11.098-.25-.053-.138-.193-.25-.311-.25-.397 0-.416-.506-.416-11.101V37.492l.427-.163c.265-.101 5.585-.162 14-.162h13.573v-4.834H58V61" fill="#fcfcfc"/><path d="M57.417 31c-.057.092-.318.167-.581.167-.318 0-.594.147-.824.439l-.345.439.002 28.852c.003 32.198-.123 29.358 1.331 30.121.915.481.922.482 4.009.482h3.092l.533-.55.533-.549V78.367c0-6.618.018-12.051.041-12.071.023-.021 5.404-.077 11.956-.125l11.915-.088.252-.5c.426-.844.366-7.026-.071-7.346-.273-.2-2.2-.237-12.209-.237H65.167V38.833h.383c.211 0 .455-.071.542-.158.096-.097 5.452-.178 13.749-.208 12.722-.047 13.62-.069 14.045-.348l.455-.298-.046-3.113-.045-3.112-.417-.198a9.436 9.436 0 0 0-1.011-.381c-.793-.245-35.254-.262-35.405-.017m35.541.59c.864.361.87.383.87 3.16 0 3.749 1.873 3.317-14.812 3.417l-13.933.083-.046 9.667c-.025 5.316-.005 9.835.045 10.041l.091.375h11.775c10.724 0 11.803.025 12.081.276.37.336.463 5.448.11 6.11-.421.793-.065.77-12.326.776l-11.605.005-.104.521c-.057.286-.104 5.765-.104 12.174v11.653l-.421.422-.422.421-3.37-.054c-3.272-.052-3.386-.065-3.912-.46l-.542-.406V60.994c0-31.868-.096-29.036 1.004-29.475.765-.305 34.883-.238 35.621.071m79.674 2.765c-.17.105-.158.19.057.405.209.21.301.224.4.064.084-.135.061-.167-.063-.09-.115.071-.193.011-.193-.151 0-.148.07-.226.155-.173.086.052.195.032.243-.046.111-.179-.314-.185-.599-.009M326.712 47.5c0 .413.033.581.072.375.04-.206.04-.544 0-.75-.039-.206-.072-.038-.072.375m-52.879 5.722a.223.223 0 0 0 .445 0 .223.223 0 0 0-.445 0M326.746 67c0 7.104.021 10.01.046 6.458.025-3.552.025-9.364 0-12.916-.025-3.552-.046-.646-.046 6.458M185 66.24c.231.298.225.313-.083.198-.268-.1-.292-.083-.125.085.144.146.261.157.382.037.12-.121.082-.246-.125-.409-.278-.218-.282-.212-.049.089m41.212 2.435c-.025.333.196.442.36.177.05-.081-.005-.227-.122-.325-.161-.133-.22-.096-.238.148m15.51 7.25c0 .125.088.261.195.302.107.041.194-.028.194-.152 0-.125-.087-.261-.194-.302-.107-.041-.195.028-.195.152m-48.514 1.523c.161.042.423.042.584 0 .16-.042.029-.076-.292-.076s-.452.034-.292.076" fill="#40bcc4"/><path d="m57.708 32.037-.375.181v28.691c0 22.093.046 28.737.2 28.891.283.282 6.485.282 6.767 0 .152-.152.2-3.091.201-12.208 0-11.677.009-12.024.331-12.55l.33-.542h11.636c8.827 0 11.684-.048 11.835-.2.279-.279.279-4.988 0-5.267-.151-.151-2.999-.2-11.796-.2-10.226 0-11.64-.03-11.967-.259l-.37-.26V48.266c0-9.522.016-10.062.305-10.324.278-.251 1.472-.275 13.742-.275 9.842 0 13.551-.052 13.862-.194l.424-.193v-5.06l-.424-.193c-.584-.266-34.149-.256-34.701.01m34.459 2.713v2.417H78.594c-8.415 0-13.735.061-14 .162l-.427.163v10.574c0 10.595.019 11.101.416 11.101.118 0 .258.112.311.25.084.218 1.472.25 11.098.25 8.069 0 11.204.053 11.756.201l.752.201v3.92l-12.006.047c-10.456.041-12.027.08-12.164.297-.096.152-.159 5.182-.161 12.792l-.002 12.542H58V32.333h34.167v2.417" fill="#f4fcfc"/><path d="M31.167 13.417c0 .542-.038.585-.542.605-1.33.055-1.626.091-1.747.211-.127.128-.151.211-.19.68-.012.136-.228.298-.48.359-.569.14-.702.332-.705 1.02-.002.348-.085.541-.233.541-.127 0-.425.255-.662.566l-.431.566v43.017c0 23.66.054 43.018.12 43.019.066.001.247.226.404.5.156.274.399.499.541.499.179 0 .259.165.261.542.002.609.214 1.03.533 1.064.118.012.308.031.422.041.115.011.209.237.209.502 0 .586.218.684 1.513.684h.987V109h87.666v-.583c0-.56.026-.585.625-.604a19.041 19.041 0 0 0 1.667-.118c.115-.016.192-.085.173-.153-.088-.315.214-1.221.374-1.122.097.06.3.008.451-.114.231-.188.252-.186.133.011-.097.161-.079.196.056.113.108-.067.186-.21.173-.318-.154-1.245.024-1.945.495-1.945.263 0 .563-.102.666-.225.266-.321.265-85.73-.001-86.051-.102-.124-.402-.224-.665-.224-.457 0-.687-.955-.496-2.054.014-.076-.053-.09-.147-.032-.093.058-.17.017-.17-.091 0-.113-.14-.159-.334-.108-.38.099-.487-.019-.534-.589-.045-.538-.268-.706-.966-.727-1.563-.046-1.5-.018-1.5-.649v-.584H31.167v.584m61.655 17.6c.327.101.782.273 1.011.381l.417.198.045 3.112.046 3.113-.455.298c-.425.279-1.323.301-14.045.348-8.297.03-13.653.111-13.749.208-.087.087-.331.158-.542.158h-.383V58h11.884c10.009 0 11.936.037 12.209.237.437.32.497 6.502.071 7.346l-.252.5-11.915.088c-6.552.048-11.933.104-11.956.125-.023.02-.041 5.453-.041 12.071v12.034l-.533.549-.533.55h-3.092c-3.087 0-3.094-.001-4.009-.482-1.454-.763-1.328 2.077-1.331-30.121l-.002-28.852.345-.439c.23-.292.506-.439.824-.439.263 0 .524-.075.581-.167.151-.245 34.612-.228 35.405.017m193.511.311c0 .083-.181.117-.403.077-.411-.075-.93.285-.93.644 0 .106.117.025.259-.179.143-.203.347-.37.454-.37.107 0-.031.206-.307.458-.64.585-.573-.41-.573 8.423 0 7.448-.011 7.714-.314 7.714-.188 0-.281-.086-.232-.214.045-.118-.001-.214-.103-.214-.101 0-.193-.169-.203-.375-.016-.301-.035-.315-.098-.072-.074.286-.091.287-.288.017-.178-.242-.483-.283-1.983-.265l-1.773.022-.257-.497c-.142-.273-.342-.497-.445-.497-.104 0-.046.164.129.364l.317.363-.441-.322c-.242-.177-.403-.384-.357-.46.047-.076-.055-.124-.225-.106a2.081 2.081 0 0 1-.477 0c-.692-.138-2.621-.016-2.863.181-.23.186-.258.187-.149.005.221-.367-.426.04-.859.54-.354.409-.453.429-2.083.432-2.625.004-3.168.164-2.994.878.064.265-.626.425-1.343.311-.069-.01-.125.064-.125.165 0 .102-.122.138-.271.081-.291-.112-.729.161-.729.454 0 .098.113.032.252-.146.235-.3.239-.29.057.135-.109.255-.328.458-.493.458-.163 0-.346.08-.407.178-.06.098-.219.137-.352.086-.135-.052-.196-.02-.139.072.056.09.024.164-.07.164s-.132.103-.084.229c.114.296-.406.817-.702.703-.126-.048-.229-.011-.229.083 0 .095-.074.126-.165.07-.09-.056-.125.001-.076.128.15.391-.232 1.167-.52 1.056-.167-.064-.215-.031-.137.095.078.126.03.159-.139.094-.187-.072-.237-.018-.181.197.042.162-.042.415-.187.56-.163.163-.2.304-.096.368.184.114-.078.742-.399.956-.125.084-.114.124.035.125.12.002.169.082.11.178-.073.118-.187.109-.353-.028-.196-.163-.234-.157-.193.033.028.13-.035.22-.14.201-.113-.022-.157.097-.106.289.047.18.17.284.274.232.104-.052.013.061-.203.252-.223.196-.353.451-.299.591.052.135-.021.36-.161.5-.194.194-.202.256-.034.258.162.001.155.044-.03.164-.35.226-.543.205-.395-.042.086-.142.035-.135-.156.02-.155.126-.281.314-.28.417.002.103.084.075.183-.062.149-.208.163-.199.08.055a2.308 2.308 0 0 0-.099.385c0 .044-.059.043-.132-.002-.166-.103-.163-.24-.195 7.898-.03 7.409.083 8.351.918 7.658.209-.174.243-.014.243 1.152 0 .822.067 1.354.172 1.354.112 0 .103.129-.024.367-.148.278-.149.383-.003.432.107.035.287.157.401.271.114.114.3.176.413.138.192-.064.284.252.22.75-.015.115.051.209.147.209.095 0 .174.079.174.176 0 .097-.074.131-.165.075-.099-.061-.12.015-.053.19.069.179.138.215.179.092.036-.11.138-.2.225-.2.097 0 .093.123-.01.316-.302.564.273.851.687.342.183-.224.274-.298.202-.163-.335.63.072 1.838.619 1.838.397 0 .88.427.74.654-.167.271.306.476 1.451.63.502.068.676.191.881.623.14.296.346.546.458.555 1.635.143 1.958.236 2.424.702.319.32.614.467.843.423.194-.037.352.003.352.09 0 .086.112.157.25.157.137 0 .25-.07.25-.155 0-.096.207-.096.541 0 .698.2 3.386.2 4.085 0 .333-.096.541-.096.541 0 0 .085.112.155.25.155.137 0 .25-.083.25-.185 0-.101.107-.143.239-.093.131.051.276.003.32-.107.06-.148.084-.145.094.01.007.114.092.208.187.208.096 0 .159-.094.141-.208-.109-.686.234-.875 1.627-.894 1.417-.019 2.392-.423 2.392-.993 0-.143.166-.238.416-.238.23 0 .418-.094.42-.209.001-.139.054-.125.159.041.128.202.197.208.371.034.156-.155.163-.246.026-.332-.137-.085-.129-.173.028-.319.237-.22.504.169.32.466-.051.084.005.159.125.169.875.066 1.153.112 1.248.207.06.06.033.109-.06.109-.315 0-.135.88.204 1 .553.195 3.909.171 3.909-.029 0-.123.069-.121.224.007.123.103.264.145.314.096.05-.05.305-.107.568-.127l.478-.037.043-25.703c.043-25.088.036-25.71-.274-26.02-.344-.344-5.353-.523-5.353-.192m-143.078 1.181c.068.11-.061.156-.347.125-.291-.032-.488.04-.543.199-.076.223-.052.223.218 0 .286-.235.29-.228.077.115-.125.2-.278.332-.341.293-.063-.039-.16.097-.217.303-.085.31-.129.331-.263.123-.139-.216-.208-.204-.503.09-.441.44-.55 47.913-.111 48.426.194.226.188.291-.04.441-.234.153-.225.173.065.151.223-.017.326.071.31.267-.013.16.017.291.065.291.049 0 .196-.131.327-.291.132-.161.197-.207.146-.103-.234.473 4.767.858 5.831.45.202-.078.238-1.626.238-10.407V62.667h10.156c6.857 0 10.192-.057 10.265-.174.058-.095.26-.125.447-.065.225.071.302.046.227-.075-.068-.111-.019-.147.125-.092.132.051.285-.034.345-.192.152-.396-.003-.492-.353-.218-.269.211-.275.206-.067-.059.126-.161.32-.292.431-.292.263 0 .264-.006.347-2.868.067-2.31-.008-3.099-.298-3.122-.069-.006-4.963-.01-10.875-.01h-10.75V39.667h11.916c6.554 0 11.967.006 12.027.015.061.008.175-.102.254-.243a.333.333 0 0 1 .418-.154c.181.07.233.04.153-.088-.075-.122-.032-.16.118-.102.252.096.513-.354.354-.61-.051-.083-.029-.152.051-.152.308 0 .204-4.227-.112-4.522-.182-.171-.381-.222-.533-.136-.183.102-.251.026-.279-.312-.02-.245-.111-.471-.202-.502-.091-.03-.165-.162-.165-.292 0-.233-.198-.315-.363-.15-.112.111-27.996.111-28.108 0-.163-.163-.548-.085-.441.09m163.359.041c.064.104-.077.123-.381.053-.354-.083-.416-.068-.233.056.22.149.131.242-.191.2-.06-.008-.072.123-.028.29.082.314-.344.602-.629.425-.222-.137-.733.296-.749.634-.038.792-.103.942-.528 1.215l-.458.295.317-.359c.175-.197.246-.359.158-.359-.335 0-.537.402-.452.899.05.297.029.436-.051.325-.08-.11-.143.299-.148.958-.006.695.047 1.068.135.942.086-.124.103.005.04.323-.107.545.362 1.043.754.801.146-.09.223.299.222 1.119 0 .156.062.245.137.198.076-.046.138-.001.138.102 0 .102.082.135.182.073.375-.231.927.254.854.752l-.068.468 2.947.028c2.204.021 3.015-.026 3.215-.188.2-.162.236-.164.142-.008-.136.225.046.267.463.107.145-.055.216-.176.16-.268-.064-.102-.159-.08-.247.06-.1.157-.144.164-.146.023-.001-.111.148-.283.331-.381.266-.142.333-.349.333-1.023 0-.696.046-.828.259-.746.142.054.22.036.172-.042-.048-.077.095-.223.317-.324.489-.223.592-4.133.104-3.946-.183.07-.191.039-.036-.147.152-.183.148-.235-.018-.228-.673.028-.779-.058-.829-.669-.048-.574-.099-.631-.635-.708-.355-.051-.592-.181-.606-.333a37.802 37.802 0 0 1-.042-.537c-.017-.258-.265-.284-2.513-.266-1.601.013-2.457.08-2.392.186m27.553-.023c0 .087-.084.108-.185.045-.103-.063-.385.119-.629.405-.291.341-.616.531-.94.552-.273.017-.602.112-.73.21-.129.098-.278.16-.332.137-.054-.022-.106.053-.116.167l-.043.51c-.018.219-.114.275-.345.201-.175-.055-.365-.026-.422.065-.056.092-.209.125-.34.075-.169-.065-.219.008-.173.248.043.223-.007.311-.147.257-.266-.102-.665.359-.517.598.061.098.048.167-.027.154-.415-.072-.517.058-.467.595.035.376-.015.566-.142.541-.107-.02-.176.06-.151.178.035.173-.032.176-.334.015-.346-.185-.358-.178-.14.085.13.158.167.274.083.258-.365-.069-.5.034-.503.385-.013 1.628-.06 1.833-.401 1.744-.183-.048-.302-.037-.264.024.038.061-.035.298-.161.526-.126.228-.232.308-.235.179-.003-.13-.039-.203-.08-.162-.041.04-.011.353.066.694.077.341.079.62.004.62-.074 0-.142 1.401-.151 3.113-.008 1.713-.037 3.135-.063 3.161-.026.026-1.042.06-2.258.075-1.362.018-2.287.1-2.409.215-.109.102-.292.194-.407.203-.433.035-.493.078-.682.493-.107.234-.145.62-.086.858.076.303.052.397-.082.314-.125-.077-.191.033-.191.318 0 .277.067.395.184.323.127-.079.151.038.077.376-.13.591.346 1.292.986 1.452.363.092.392.147.221.422-.233.372.098.918.47.776.12-.046.266-.007.324.088.066.106.797.153 1.913.123.994-.027 1.847-.009 1.896.039.049.049.093 6.481.099 14.293.007 10.507.059 14.173.198 14.087.123-.076.152-.022.084.155-.057.15-.021.324.081.387.118.073.141.03.063-.12-.066-.129-.006-.093.134.079.16.197.381.28.595.224.188-.049.341-.027.341.048 0 .275 5.178.164 5.284-.113.078-.203.122-.209.237-.028.077.123.142-6.359.143-14.402l.003-14.625 4.875-.019c2.681-.01 5.052-.003 5.269.015.244.02.351-.036.283-.147-.071-.114-.007-.139.177-.068.22.084.262.045.18-.169-.059-.153-.031-.279.061-.279.288 0 .178-5.162-.11-5.187a3.315 3.315 0 0 1-.402-.063c-.091-.023-2.454-.051-5.25-.062l-5.083-.021v-2.5c0-1.876.052-2.506.208-2.525.115-.014.359-.032.542-.042.233-.012.341-.143.358-.433.07-1.161.323-1.917.647-1.934.672-.035.708-.069.655-.619l-.053-.552 1.405.035c.772.02 1.405-.013 1.405-.072 0-.06.993-.094 2.208-.077l2.208.032.417-.562c.229-.31.537-.595.684-.635.34-.092.479-4.783.141-4.783-.107 0-.149-.116-.095-.259.065-.169.033-.217-.094-.139-.132.082-.156.024-.077-.182.098-.256.077-.269-.142-.087-.221.183-.241.168-.14-.101.105-.279.086-.289-.162-.087-.242.197-.282.192-.282-.032 0-.23-.532-.26-4.583-.254-2.809.005-4.583.07-4.583.168m-160.936 1.837c-.048.078-.157.098-.243.046-.085-.053-.155.025-.155.173 0 .162.078.222.193.151.124-.077.147-.045.063.09-.099.16-.191.146-.4-.064-.215-.215-.227-.3-.057-.405.285-.176.71-.17.599.009m155.834 1.058c-.152.232-.229.469-.171.528.058.058.106.018.106-.089s.15-.344.333-.528c.184-.183.26-.333.171-.333-.09 0-.287.19-.439.422M194.483 45.739c-.04.04-.296.109-.569.153-.274.044-.519.087-.545.094-.026.008.038.173.142.367.149.279.144.326-.023.223-.147-.091-.181-.051-.11.133.089.231-.148.264-1.93.269-3.492.01-3.615.021-3.615.318 0 .221-.043.211-.243-.056-.238-.315-.242-.314-.179.037.093.521-.247.877-.882.923-.305.022-.593.102-.64.178-.047.076-.191.05-.321-.057-.169-.14-.235-.143-.235-.008 0 .103-.11.187-.244.187-.135 0-.211.094-.169.208.129.352-.203.686-.718.722-.925.064-1.809.779-1.358 1.098.196.14.19.154-.039.082-.343-.11-.438.127-.368.925.029.34-.021.664-.113.72-.091.057-.145.013-.12-.097.025-.111-.127-.217-.338-.236-.437-.039-.699.337-.699 1.002 0 .325-.067.419-.248.35-.137-.053-.231-.042-.21.024.021.065-.084.293-.234.505-.188.267-.296.319-.347.167-.041-.121-.065.078-.053.443.022.667-.709 1.739-1.108 1.625-.087-.026-.109.034-.048.132.06.098.014.293-.102.433-.126.152-.149.301-.056.368.203.146.246.696.054.696-.082 0-.148.405-.148.901 0 .789-.038.891-.304.821-.721-.188-1.027 3.253-.723 8.137.064 1.016.048 1.737-.036 1.685-.081-.05-.113.013-.071.141.041.127.322.313.622.412l.548.181.007 1.736c.004.955.077 1.826.163 1.937.086.11.1.291.032.4-.073.119-.053.157.05.093.096-.059.266.004.378.139.113.135.27.206.351.156.08-.049.105.014.057.142-.049.128.022.324.158.437.136.114.206.314.156.446-.051.132-.002.348.107.48.11.133.15.323.088.422-.214.346.246.681.643.47.313-.167.331-.159.144.067-.173.211-.169.274.022.347.151.058.212.273.174.603-.033.283.018.513.113.513.096 0 .133.067.083.147-.115.186.528 1.018.791 1.026.108.004.351.248.54.542.253.396.449.524.75.493.291-.03.341 0 .176.107-.267.173.358.448.632.278.231-.142.682.379.574.662-.052.135-.007.245.1.245.107 0 .157.06.112.133-.045.073.419.151 1.031.174.612.023 1.185.113 1.272.201.088.087.098.159.023.159-.076 0-.035.127.091.282.156.192.162.242.021.157-.115-.069-.209-.053-.209.035 0 .28.998.539 1.35.351.217-.116.317-.115.317.002 0 .101.442.173 1.065.173.912 0 1.061.042 1.041.292-.012.16.068.273.18.252.124-.025.161.066.096.235-.071.185-.041.236.09.155.107-.066.195-.041.195.056s.154.177.343.177c.189 0 .302-.067.251-.149-.054-.087.167-.089.532-.004.834.194 4.155.192 4.833-.002.333-.096.541-.096.541 0 0 .085.158.155.351.155.242 0 .322-.077.256-.248-.08-.207-.042-.214.234-.042.41.256 1.255-.157 1.219-.597-.023-.274.745-.397 1.885-.302.2.017.411-.047.47-.143.059-.096.178-.131.263-.078.085.053.155-.012.155-.143 0-.132.131-.343.292-.469.261-.204.269-.199.075.048-.152.195-.163.311-.034.39.271.168.702-.265.611-.613-.073-.279.574-.441 1.277-.319.075.013.09-.053.032-.147-.059-.094-.037-.171.048-.171.084 0 .133-.187.107-.416-.037-.338.031-.421.357-.438.221-.011.489-.03.596-.041.107-.012.224-.245.261-.518.071-.532.306-.771.633-.645.241.092.785-.408.662-.608-.047-.076-.006-.349.091-.606.133-.349.213-.409.318-.239.186.301.653.109.661-.271a5.63 5.63 0 0 1 .079-.718c.04-.229.079-.585.087-.791.007-.207.102-.375.209-.375s.345-.132.529-.292c.196-.172.277-.196.195-.058-.093.158-.075.196.055.116a.478.478 0 0 0 .192-.369c0-.14-.081-.2-.183-.137-.133.082-.133.02 0-.229.101-.189.183-.595.183-.903 0-.487.07-.58.542-.719.424-.125.542-.25.542-.576 0-.229.054-.501.121-.604.166-.254.138-14.396-.027-14.396-.073 0-.11-.202-.083-.448.057-.512-.327-.881-.79-.76-.286.075-.454-1.031-.317-2.084a.21.21 0 0 0-.189-.233l-.382-.046c-.42-.053-.583-.336-.583-1.012 0-.402-.072-.775-.16-.829-.087-.054-.112-.221-.055-.371.07-.181.04-.232-.09-.151-.108.066-.195.032-.195-.077 0-.145-.058-.148-.224-.011-.288.239-.442.078-.446-.464-.003-.644-.24-.901-.814-.884-.51.014-.621-.174-.533-.904.013-.105-.259-.26-.605-.344-.435-.106-.621-.239-.605-.434.013-.155-.072-.281-.188-.281s-.305-.114-.42-.253c-.116-.138-.294-.242-.396-.23-.94.111-1.436-.032-1.436-.414 0-.713-.3-.787-3.241-.805l-2.768-.016-.264-.556c-.145-.306-.325-.519-.4-.472-.076.046-.184.008-.242-.085-.101-.163-1.454-.245-1.602-.097m40.952.204c-.173.169-.263.214-.2.101.076-.136.031-.174-.132-.112-.275.106-.297.733-.026.737.095.002.071.067-.053.146-.124.079-1.493.147-3.042.153-2.947.011-3.315.097-3.219.754.055.375-.099.43-1.383.494-.57.029-1.095.116-1.167.195-.071.078-.024.081.104.007.159-.092.196-.073.114.059-.066.107-.195.149-.286.093-.209-.129-.812.403-.812.716 0 .128-.075.187-.166.131-.092-.057-.167-.031-.167.058 0 .088-.136.125-.303.081-.447-.117-.767.336-.538.763.15.28.137.323-.072.243-.139-.054-.254-.01-.254.098 0 .124-.13.154-.354.083-.218-.069-.315-.048-.252.054.121.195-.291.583-.451.424-.167-.167-.131.095.063.457.121.226.119.322-.007.322-.099 0-.168.094-.153.208.067.513-.027.969-.179.875-.092-.056-.26-.043-.375.03-.115.072-.276.133-.359.134-.083.002-.17.115-.192.253a3.341 3.341 0 0 1-.17.569c-.096.241-.073.286.093.183.156-.096.182-.073.088.078-.073.119-.15.374-.171.568a68.11 68.11 0 0 0-.059.557c-.013.126-.212.183-.518.147-.273-.031-.456.008-.407.087.05.079.001.144-.107.144-.146 0-.149.058-.012.224.103.123.14.27.083.327-.057.057-.15.521-.207 1.031-.057.511-.148.907-.203.882-.055-.026-.223.056-.375.182-.311.258-.384.775-.083.588.127-.078.147-.045.058.099-.105.17-.184.151-.359-.089-.266-.364-.286-.259-.062.329.089.235.096.427.015.427s-.155 1.2-.164 2.667c-.013 2.041.032 2.667.193 2.669.163.002.161.034-.008.141-.251.159-.236 5.857.015 5.857.078 0 .098.139.043.309-.107.339.292.783.557.619.17-.105.372.365.461 1.072.028.229.062.491.075.583.013.092-.033.301-.101.465-.068.164-.058.287.022.272.337-.061.462.029.237.171-.167.106-.054.138.363.105.562-.045.602-.017.563.386-.023.239.029.528.116.643.104.137.092.208-.035.208-.142 0-.146.089-.013.337.099.185.14.401.092.479-.049.079.173.42.492.759.319.338.581.773.581.965 0 .192.044.305.097.251.164-.164.712.41.62.65-.047.124-.003.226.098.226.102 0 .185-.075.185-.167 0-.092.138-.035.306.125.232.221.263.35.125.531-.147.194-.121.217.134.121.269-.101.284-.081.101.14-.182.219-.169.24.087.142.17-.065.26-.049.207.038-.052.084.067.169.264.189.197.019.509.07.692.112.184.042.466.082.629.089.225.01.271.106.194.411-.112.447.055.6.829.764.342.073.507.203.492.389-.012.153.044.238.125.187.081-.05.148.035.148.189 0 .242.038.249.281.052.246-.201.268-.193.172.063-.066.176-.029.295.094.301 1.656.078 2.715.214 2.766.356.154.434.712.803 1.106.731.228-.041.414-.005.414.081 0 .086.113.156.25.156.138 0 .25-.067.25-.149 0-.086.296-.083.701.008.846.19 5.966.127 5.966-.073 0-.078.141-.097.314-.043.363.116.588-.274.316-.547-.244-.244.298-.36 1.979-.423 1.321-.05 1.913-.28 1.782-.691-.12-.38.26-.564 1.279-.618.8-.043 1.086-.121 1.102-.303.013-.134.032-.357.043-.495.012-.137.208-.336.437-.442.228-.106.373-.125.322-.042-.137.221.159.184.393-.049.248-.248.264-.526.021-.376-.099.061-.084-.042.033-.229.195-.312.715-.59 1.021-.546.144.02.137.056.227-1.149.094-1.246.127-1.302.735-1.231.417.049.51.008.435-.187-.052-.137-.039-.249.031-.249.069 0 .13-.131.136-.291.026-.749.422-1.237.887-1.091.221.069.223.056.014-.092-.211-.149-.206-.214.041-.487.217-.24.285-.621.285-1.599 0-1.267.005-1.282.362-1.091.3.16.4.142.583-.109.28-.382.287-.632.014-.468-.16.096-.159.064.005-.138.268-.331.281-13.134.014-13.134-.09 0-.123-.066-.073-.148.051-.081-.001-.144-.115-.14-.769.028-.79-.004-.79-1.212 0-.71-.069-1.166-.176-1.166-.097 0-.128-.079-.069-.174.132-.215-.356-.993-.624-.993-.107 0-.049.117.129.259.311.249.309.252-.051.078a.64.64 0 0 1-.375-.593c0-.226-.09-.411-.2-.411-.148 0-.152-.048-.013-.187.321-.321.043-.646-.555-.646h-.566l-.019-1.042c-.011-.573-.011-1.098 0-1.166.01-.069-.203-.125-.475-.125-.474 0-.963-.488-.726-.724.206-.206-.293-.561-.683-.486-.397.076-.888-.444-.646-.685.058-.058.013-.105-.099-.105-.113 0-.159-.074-.103-.165.059-.095-.008-.123-.157-.066-.142.055-.258.017-.258-.085 0-.112-.355-.184-.907-.184-.865 0-1.332-.207-.886-.392.144-.06.087-.194-.184-.431-.426-.373-.712-.399-3.94-.356-1.013.013-1.945-.053-2.083-.146-.169-.115-.182-.171-.042-.173.115-.001.208-.115.208-.252 0-.138-.079-.25-.176-.25-.097 0-.138-.063-.091-.139.047-.077-.004-.148-.115-.159l-1.201-.126c-.838-.089-1.051-.056-1.315.2m71.66 1.017c-.024.024-.3.065-.613.091-.313.026-.673.111-.801.19-.17.105-.195.084-.093-.081.076-.124-.091-.062-.373.139-.281.2-.554.534-.606.741-.192.767-.036 31.878.161 31.842.126-.023.11.187-.052.657-.375 1.088.412 2.622 1.417 2.762 1.423.198 5.193.18 5.399-.025.12-.121.301-.192.401-.159.321.107.634-.416.411-.685-.15-.181-.149-.265.005-.36.127-.078.157-.053.082.069-.066.106-.047.192.042.192.461 0 .508-33.201.048-33.486-.192-.118-.192-.154 0-.23.178-.071.18-.094.009-.104-.12-.007-.179-.077-.13-.156.049-.079-.088-.124-.305-.1-.339.037-.407-.047-.497-.607-.074-.461-.188-.653-.394-.659-1.55-.046-4.076-.065-4.111-.031m19.689.915c-.039.206-.072.038-.072-.375s.033-.581.072-.375c.04.206.04.544 0 .75m21.88-.857c-.411.056-.844.066-.962.022-.119-.045-.201-.015-.182.065.05.22-.207.736-.329.66-.059-.036-.108.452-.109 1.085 0 .632.038 1.15.084 1.15.046 0 .095.196.109.436.015.253.246.636.553.917.359.328.497.579.431.786-.061.191.099.579.431 1.041.348.485.405.628.169.419-.197-.174-.359-.233-.359-.131 0 .243.626.577.837.447.156-.097.235.342.172.96-.017.16.052.292.153.292.129 0 .132.094.011.322-.213.396-.221.56-.024.438.082-.05.194.024.248.166.057.148.029.214-.066.156-.368-.228-.132.249.307.618.515.433.981 1.466.661 1.466-.101 0-.047.152.121.338.233.257.337.287.44.125.097-.154.136-.129.137.089.002.166.078.255.17.198.091-.056.174.033.183.199.01.166.032.617.05 1.003.037.816.101.907.657.94.226.014.376.081.334.15-.043.069-.005.125.084.125.089 0 .142.189.116.421-.025.231.012.456.083.5.072.045.095.305.051.58-.047.298-.005.499.104.499.129 0 .132.095.01.322-.202.379-.229.692-.033.382.104-.163.203-.137.425.109.218.241.24.352.087.446-.138.086-.16.056-.068-.092.095-.154.07-.179-.083-.084-.154.095-.179.071-.084-.083.093-.15.07-.178-.073-.089-.162.1-.151.186.049.386.212.212.303.22.516.043.259-.215.361.265.3 1.41-.01.183.026.446.08.583.054.138.08.325.058.417-.023.092.015.111.083.043s.224-.04.347.062c.165.137.224.136.224-.001 0-.257.273-.238.298.021.011.115.047.634.08 1.155.034.52.169 1.079.3 1.24.178.219.182.26.016.16-.162-.097-.149.007.046.385.247.477.439.601.822.531.08-.014.101.089.047.231-.055.141-.042.256.027.256s.117.259.107.576c-.011.319.05.532.136.479.09-.055.111.048.05.24-.117.369.267.872.666.872.216 0 .343.743.25 1.458-.014.115.056.209.157.209s.136.078.076.174c-.157.255.241.659.65.659.314 0 .354.091.342.792-.007.435.056.882.14.992.083.111.096.291.028.401-.078.126-.052.156.069.081.106-.065.193-.04.193.057 0 .098.056.168.125.157.593-.093.625.001.604 1.812a60.774 60.774 0 0 1-.041 1.983c-.012.106-.239.177-.504.158-.335-.023-.456.033-.399.183.046.118.162.167.258.107.1-.061.126-.028.06.077-.063.102-.224.143-.359.092-.25-.096-.337.127-.13.334.162.161.19.774.036.774-.071 0-.152.206-.181.458-.042.362-.141.46-.469.465-.309.005-.403.085-.364.309.029.166-.011.262-.089.214-.079-.049-.159.293-.179.759-.04.906-.257 1.327-.614 1.19-.299-.114-.477.217-.548 1.019-.032.368-.073.821-.091 1.007-.018.186-.327.698-.688 1.138-.36.44-.585.851-.5.912.21.151.2 2.245-.011 2.407-.104.08-.059.211.12.348.218.167.239.265.09.414-.149.15-.133.258.069.461.205.204.294.217.394.056.089-.144.061-.167-.089-.074-.146.09-.178.07-.098-.06.174-.282.436-.063.311.261-.078.204-.035.247.169.169.151-.058.314-.04.363.039.119.192 4.899.178 5.018-.014.051-.083.144-.119.207-.082.123.075.434-.213.517-.479.189-.601.358-.917.492-.917.38 0 .797-1.119.838-2.248.023-.638.117-1.275.208-1.415.142-.217.154-.213.08.027-.068.221.01.274.362.247.423-.033.452-.088.493-.948.073-1.514.145-1.683.668-1.568.317.068.386.05.228-.061-.161-.114-.171-.179-.033-.225.107-.036.222-.214.256-.395.034-.182.073-.331.086-.331.014 0 .061-.3.105-.666.043-.367.16-.695.259-.729.365-.128.827-.721.739-.951-.05-.13-.019-.237.07-.237.089 0 .153-.056.142-.125-.139-.882.053-2.208.32-2.208a.89.89 0 0 0 .524-.209c.182-.168.199-.163.091.026-.089.157-.07.195.059.115.115-.071.192-.581.192-1.276 0-.917.052-1.156.25-1.156.268 0 .93-.585.897-.792a.644.644 0 0 1 .021-.25c.101-.312.125-.503.145-1.145.017-.568.061-.654.253-.495.185.154.228.132.208-.104-.016-.198.075-.281.268-.249.16.027.292-.029.292-.125 0-.095-.087-.174-.193-.174-.115 0-.082-.122.084-.304.193-.215.275-.611.275-1.334 0-.565.075-1.038.167-1.049.092-.012.298-.028.458-.036.443-.023.537-.266.539-1.402.002-.707.07-1.049.211-1.066.115-.014.359-.032.542-.042.23-.011.343-.145.366-.433.124-1.576.38-2.292.74-2.07.129.08.354-.21.431-.555.025-.115.078-.34.117-.5.039-.161.076-.565.083-.898.01-.458.094-.626.344-.692.275-.072.59-.553.759-1.16.019-.069.044-.575.056-1.125.015-.746.081-1 .258-1 .131 0 .273-.132.314-.292.07-.266.078-.265.096.014.032.5.436.208.441-.32.003-.267.065-.581.138-.698.072-.117.11-.469.083-.783-.027-.314.005-.624.071-.69.066-.066.12-.021.12.1 0 .153.111.123.362-.097.199-.175.307-.224.24-.109-.069.117-.037.208.073.208.124 0 .156-.15.09-.417-.063-.248-.034-.416.072-.416.098 0 .165-.094.15-.209-.097-.748.036-1.276.348-1.375.184-.059.447-.323.583-.587.303-.585.313-.721.04-.557-.158.095-.164.067-.027-.115.1-.133.201-.653.223-1.156.043-.959.186-1.179.679-1.05.162.043.353-.015.424-.129.09-.146.058-.165-.107-.066-.197.119-.199.098-.011-.134.122-.151.174-.353.115-.448-.059-.096-.037-.174.049-.174.085 0 .158-.282.161-.625.009-.995.026-1.068.213-.952.098.061.286-.029.417-.198.232-.298.236-.298.128.01-.079.226-.053.283.089.195.111-.069.159-.262.105-.43-.053-.168-.027-.349.059-.402.191-.118.168-3.265-.024-3.265-.076 0-.095-.07-.042-.155.162-.261-.572-.389-.866-.15-.231.187-.252.185-.131-.015.105-.174.074-.21-.119-.136-.143.055-.302.059-.351.009-.074-.073-1.64-.086-4.484-.037-.16.002-.292.09-.292.194 0 .14-.051.139-.193-.004-.148-.147-.248-.091-.417.236-.273.526-.279.612-.031.459.12-.074.148-.046.074.073-.065.106-.269.193-.452.193-.194 0-.288.074-.224.177.066.107-.013.157-.198.125-.222-.037-.294.035-.256.256.029.17-.008.271-.083.225-.075-.047-.148.293-.162.755-.015.462-.117.895-.228.964-.152.094-.146.149.026.228.125.058.026.067-.22.02-.558-.106-.687.086-.469.694.15.419.143.439-.063.175-.207-.265-.229-.214-.206.472.014.423-.029.803-.095.845-.067.041-.082.177-.034.302s.008.277-.089.337c-.107.066-.137.007-.077-.15.134-.349-.155-.328-.483.034-.329.365-.507 1.089-.478 1.947.026.761-.363 1.459-.774 1.391-.196-.033-.268.048-.232.261.032.185-.018.265-.125.199-.097-.061-.177.002-.177.14 0 .137.075.296.167.353.111.069.111.208-.001.418a2.3 2.3 0 0 0-.205.749c-.025.309-.113.415-.304.365-.148-.038-.272.014-.276.116a1.96 1.96 0 0 1-.14.504c-.099.242-.078.286.089.183.15-.093.181-.073.097.064-.095.154-.184.151-.386-.016-.233-.192-.24-.175-.063.158.149.279.151.375.008.375-.11 0-.155.143-.105.334.048.183.023.373-.056.422-.079.048-.107.184-.062.302.045.117-.09.359-.299.536l-.381.323.292-.346c.359-.428.372-.591.035-.462-.141.054-.372.323-.514.597-.141.274-.179.449-.084.391.096-.059.066.1-.065.353-.153.294-.203.687-.139 1.088.059.367.024.72-.086.852-.102.123-.131.284-.063.357.068.072-.053.04-.269-.073-.311-.162-.432-.162-.583.002-.145.157-.14.178.018.089.114-.065.208-.034.208.069 0 .102.087.132.192.067.121-.074.148-.046.072.076a.223.223 0 0 1-.304.082c-.121-.075-.144-.011-.068.188.102.266.083.274-.169.069-.253-.206-.272-.197-.168.081.234.622-.059 1.946-.392 1.768-.215-.115-.356-.082-.52.121-.192.236-.191.257.01.136.18-.109.21-.073.125.148-.061.16-.111.327-.111.37 0 .044-.075.034-.167-.023-.092-.057-.167-.027-.167.065 0 .093.132.245.292.338.273.159.272.171-.018.175-.256.004-.298.108-.242.589.047.402.001.583-.148.583a.218.218 0 0 1-.217-.218c0-.139-.182-.205-.5-.183l-.5.034-.002-1.358c-.003-1.481-.12-2.156-.35-2.013-.082.05-.148.007-.148-.097 0-.112-.135-.145-.333-.082-.278.088-.336.028-.349-.363-.051-1.53-.255-2.426-.471-2.075-.269.435-.653-.224-.724-1.245-.077-1.08-.215-1.466-.469-1.309-.494.306-.821-.116-.823-1.061-.003-1.24-.128-1.663-.531-1.791-.218-.069-.303-.208-.251-.409.055-.21.008-.277-.151-.216-.234.09-.31-.394-.234-1.508.018-.268-.038-.434-.127-.379-.088.055-.151-.062-.14-.258.014-.257-.085-.364-.355-.385-.517-.039-.527-.061-.563-1.149-.034-1.059-.272-1.435-.908-1.435-.39 0-.404-.042-.404-1.167 0-.71-.069-1.166-.177-1.166-.097 0-.131-.074-.075-.164.13-.211-.204-.836-.447-.836-.102 0-.043.163.131.363l.318.364-.427-.313c-.299-.22-.437-.489-.463-.905-.021-.326-.087-.743-.147-.926a1.605 1.605 0 0 1-.071-.61c.079-.548-.256-.608-3.812-.681-1.148-.023-2.423.003-2.833.059m-64.759.796c.05.082-.014.236-.143.343-.213.176-.251.018-.108-.449.028-.091.165-.033.251.106m-86.524 5.517c.093.355.723.679 1.536.792.275.038.525.139.556.224.03.085.109.122.175.081.065-.04.216.083.335.274.194.31.184.334-.091.229-.242-.092-.265-.074-.107.085.158.16.257.157.462-.013.221-.184.245-.175.156.057-.078.202-.011.273.256.273.198 0 .315.074.26.164-.131.211.203.836.446.836.103 0 .044-.162-.131-.361-.296-.338-.282-.336.224.031.533.387.741.633.334.395-.115-.067-.076.03.087.216.184.211.252.451.18.639-.086.224-.059.267.105.165.15-.093.181-.072.097.065-.073.118.038.352.27.567.465.431.881 1.354.725 1.607-.06.097.008.176.151.176s.26.085.26.187c0 .135.066.133.235-.008.419-.347.457.059.447 4.745l-.009 4.581-.563.494c-.466.41-.558.601-.538 1.123.014.345-.043.722-.127.836-.083.114-.113.352-.067.529.059.226.015.295-.147.233-.127-.049-.231-.002-.231.103 0 .106-.132.17-.292.143-.174-.029-.273.042-.244.177a.59.59 0 0 1-.124.432c-.094.113-.13.247-.079.297.05.051-.138.255-.418.455-.281.199-.51.47-.51.601 0 .216-.202.312-.542.259-.068-.011-.125.126-.125.303 0 .178-.074.37-.164.426-.092.057-.124-.005-.072-.14.115-.301-.197-.519-.361-.253-.071.115-.049.151.054.088.105-.066.165.05.151.291-.014.22-.075.368-.138.33-.062-.039-.162.009-.222.106s-.264.127-.454.067c-.267-.085-.322-.051-.244.151.067.173.025.232-.123.175-.132-.051-.307.106-.431.385l-.208.471-2.94-.011c-3.038-.011-3.423-.075-3.272-.55.053-.17-.043-.362-.244-.488-.188-.117-.332-.136-.332-.043 0 .107-.148.107-.427.001a2.836 2.836 0 0 0-.834-.162c-.403 0-.443-.072-.448-.799-.002-.25-.095-.372-.272-.355-.791.076-1.019-.017-1.019-.416 0-.618-.16-.9-.469-.826-.512.122-.677-.174-.712-1.283-.036-1.084-.037-1.088-.543-1.126-.28-.022-.526-.056-.547-.078-.021-.021-.058-1.05-.081-2.286-.048-2.581-.162-3.021-.665-2.566-.257.233-.366.251-.528.088-.162-.164-.135-.181.129-.082.286.107.303.088.122-.136-.116-.143-.165-.382-.107-.531.057-.149.023-.271-.076-.271-.326 0-.006-.468.388-.567.537-.135.609-.408.7-2.683.074-1.852.109-2.022.469-2.294.269-.203.363-.408.306-.666-.065-.3-.046-.324.097-.123.126.176.186.188.202.041.013-.114.042-.283.065-.375.023-.091.051-.429.063-.75.014-.396.1-.583.269-.583.137 0 .418-.262.625-.583.207-.32.501-.623.653-.673.153-.05.398-.275.546-.5.16-.244.428-.411.661-.411.359 0 .695-.235.767-.538.172-.725.196-.746.776-.682.337.037.542-.002.487-.092-.055-.089.059-.116.262-.063.245.064.322.033.242-.097-.074-.12-.03-.157.119-.1.252.097.513-.353.354-.609-.054-.089.844-.152 2.147-.152 2.096 0 2.246.021 2.327.331m41.693.127.279.459-.343-.394c-.189-.216-.343-.322-.343-.234 0 .349.665.728 1.436.82.946.113.908.092.939.51.033.434.289.643.791.645.31.002.403.08.364.303-.029.165.012.26.092.211.079-.05.246.074.371.274.215.346.21.352-.092.115-.294-.231-.301-.228-.089.041.126.161.367.292.536.292.37 0 .742.591.475.756-.185.115.282.564.593.569.092.002.054-.078-.083-.177-.208-.149-.199-.163.055-.08.168.054.368.099.444.099.076 0 .122.562.101 1.25-.02.687.01 1.25.066 1.25s.091.334.077.744c-.014.409.02.717.074.683.055-.033.234.12.399.34.34.453.272.53-.121.137-.144-.144-.262-.184-.262-.089 0 .224.629.561.823.441.086-.053.145 1.179.139 2.895-.008 2.353-.055 2.969-.223 2.905-.117-.045-.298.076-.401.269-.103.193-.246.315-.317.271-.07-.044-.137.16-.147.454-.08 2.266-.111 2.409-.603 2.797l-.48.377.197-.404c.188-.385.185-.389-.065-.075-.145.181-.227.424-.182.542.045.117-.005.213-.113.213-.142 0-.145.049-.009.185.285.285-.079 1.199-.425 1.066-.147-.056-.219-.055-.161.004.142.141-.41.713-.592.614-.079-.043-.089.091-.024.297.081.256.06.339-.065.261-.102-.062-.185-.032-.185.069 0 .127-.114.121-.375-.018-.333-.177-.351-.17-.159.063.148.179.161.297.039.372a.212.212 0 0 0-.065.291c.068.11.034.132-.089.057-.154-.095-.155-.179-.005-.36.136-.164.14-.235.011-.235-.101 0-.229.181-.285.403-.1.399-.756.709-1.078.51-.086-.053-.112.02-.058.162.057.146.012.259-.103.259-.111 0-.159.111-.107.247.168.438-.412.521-3.393.489-3.473-.038-3.224-.013-3.109-.311.062-.162.012-.211-.149-.149-.213.082-.318-.11-.263-.479.009-.065-.087-.079-.214-.03s-.28.009-.341-.089c-.06-.098-.331-.178-.6-.178-.316 0-.498-.09-.511-.25a3.323 3.323 0 0 0-.063-.417 3.295 3.295 0 0 1-.062-.333c-.012-.092-.284-.167-.604-.167-.588 0-.659-.108-.629-.957.004-.113-.054-.168-.129-.122-.075.047-.185.005-.245-.092s-.252-.13-.428-.075c-.306.098-.455-.597-.332-1.546.015-.114-.051-.208-.147-.208-.095 0-.165-.056-.154-.125.059-.375-.059-.488-.436-.416-.39.075-.417.036-.417-.606 0-.378-.078-.686-.173-.686-.117 0-.115-.108.006-.334.186-.346-.014-.948-.4-1.205-.119-.08-.096-.126.067-.131.199-.006.191-.041-.038-.175-.159-.092-.338-.159-.398-.147-.3.056-.392-.64-.395-2.963l-.002-2.539.421-.106c.578-.145.714-.472.829-2 .12-1.582.23-2.036.418-1.731.18.292.726.063.604-.254-.052-.137-.023-.249.066-.249s.162-.402.162-.893c0-.855.018-.892.416-.848.23.025.417-.028.417-.117 0-.089.066-.121.146-.071.08.049.146-.105.146-.343 0-.413.319-.782.552-.638.221.137 1.469-.595 1.572-.921.103-.324.338-.407.963-.343.166.017.275-.066.25-.19-.025-.12.057-.197.182-.171.167.035.2-.066.122-.375l-.106-.423h5.468l.279.458m35.204-.236a.223.223 0 0 1-.445 0 .223.223 0 0 1 .445 0m5.938-.089c-.11.07-.189.289-.174.486.015.197.081.324.148.283.066-.041.16-.01.209.069.048.078.476.156.95.173.99.035 1.171.109 1.048.43-.074.194.372.802 1.384 1.884.11.118.24.144.292.058.052-.084.226-.134.386-.11.469.068.534 14.997.066 15.247-.171.092-.442.367-.602.611-.193.295-.215.402-.065.319.124-.068-.15.235-.608.673-.58.555-.833.928-.833 1.229 0 .379-.077.438-.63.484-.449.037-.789.211-1.184.606-.724.724-1.168.96-1.389.739-.115-.115-.203-.083-.273.1-.071.185-.039.232.103.149.113-.066.056.055-.127.27-.214.251-.244.346-.084.267.183-.091.178-.065-.021.099-.684.566-5.573.191-5.208-.399.045-.074-.002-.133-.104-.133s-.132-.088-.066-.195c.081-.131.03-.161-.151-.091-.15.057-.317.033-.371-.055-.054-.088-.431-.159-.839-.159-.734 0-.74-.005-.74-.584 0-.555-.027-.583-.583-.583-.398 0-.59-.079-.604-.25a52.91 52.91 0 0 1-.044-.542c-.036-.445-.269-.727-.489-.591-.265.166-.907.25-.696.092.224-.169.3-.926.079-.79-.094.058-.16.044-.147-.032.116-.67-.043-2.057-.224-1.948-.163.098-.165.072-.01-.121.215-.266.095-.558-.24-.585-.759-.06-.718.212-.703-4.662.013-4.104.042-4.573.269-4.384.21.174.248.169.215-.029-.023-.133.041-.429.142-.658l.182-.417-.025.447c-.014.245-.096.402-.183.349-.086-.053-.103-.009-.036.098.236.382.413-.001.525-1.134.092-.942.16-1.132.37-1.052.168.065.215.032.138-.094-.076-.123-.032-.16.122-.1.28.107.513-.181.354-.438-.073-.118-.199-.104-.385.041-.247.194-.253.186-.048-.075.126-.16.332-.292.458-.292.127 0 .239-.131.249-.291a3.8 3.8 0 0 1 .058-.459c.021-.091.05-.268.064-.392.014-.127.134-.185.27-.133.135.052.29.021.345-.068.055-.089.182-.112.281-.05.108.066.133.034.062-.081-.065-.106-.04-.192.056-.192s.157-.169.135-.375c-.03-.276.037-.362.252-.326.16.027.291-.03.291-.125 0-.096.057-.165.125-.155.282.045.541-.027.522-.144-.105-.668.037-.875.603-.875.349 0 .589-.084.597-.209.01-.159.033-.157.099.007.071.176.135.176.353 0 .223-.181.243-.176.124.035-.077.137.012.1.197-.083.223-.22.286-.4.184-.528-.104-.131-.057-.22.146-.272.516-.134 5.645-.119 5.433.016m46.576 20.325c-.025 3.552-.046.646-.046-6.458s.021-10.01.046-6.458c.025 3.552.025 9.364 0 12.916m-141.635-7.773c-.136.254-.137.401-.006.533.208.208.215.196.253-.426.034-.551-.001-.566-.247-.107m59.917 2.385c-.178.13-.286.273-.24.319.045.045.26-.061.476-.237.453-.367.25-.438-.236-.082m-18.502.782c-.164.265-.385.156-.36-.177.018-.244.077-.281.238-.148.117.098.172.244.122.325m138.75 2.273c-.011.4-.029.416-.146.125-.074-.183-.102-.39-.062-.458.141-.244.219-.119.208.333m-95.998 1.893c-.24.447.032.774.337.406.165-.199.167-.257.008-.257-.113 0-.162-.112-.109-.25.143-.372-.02-.303-.236.101m-27.213 3.057c0 .124-.087.193-.194.152-.107-.041-.195-.177-.195-.302 0-.124.088-.193.195-.152.107.041.194.177.194.302m24.045 5.495c.185.223.091.245-.458.109-.063-.015.135-.346.208-.346.029 0 .142.107.25.237" fill="#2cb4bc"/></g></svg>